<svg width="137" height="62" viewBox="0 0 137 62" fill="none" xmlns="http://www.w3.org/2000/svg">
<rect width="137" height="62" rx="20" fill="black"/>
<path d="M20.5098 27.158V22.286H32.7318C33.2918 22.286 33.5718 22.006 33.5718 21.446V14.684C33.5718 14.124 33.2918 13.844 32.7318 13.844H12.8238C12.2918 13.844 12.0258 14.124 12.0258 14.684V48.158C12.0258 48.718 12.2918 48.998 12.8238 48.998H19.6698C20.2298 48.998 20.5098 48.718 20.5098 48.158V35.684H30.2538C30.8138 35.684 31.0938 35.404 31.0938 34.844V27.998C31.0938 27.438 30.8138 27.158 30.2538 27.158H20.5098ZM32.7318 12.164C34.1318 12.164 34.9438 12.738 35.1678 13.886C36.3438 14.11 36.9318 14.936 36.9318 16.364V23.126C36.9318 24.806 36.0918 25.646 34.4118 25.646H31.5138C32.1298 25.898 32.5358 26.416 32.7318 27.2C33.8798 27.424 34.4538 28.25 34.4538 29.678V36.524C34.4538 38.204 33.6138 39.044 31.9338 39.044H23.8698V49.838C23.8698 51.518 23.0298 52.358 21.3498 52.358H14.5038C13.1318 52.358 12.3338 51.784 12.1098 50.636C10.9338 50.412 10.3458 49.586 10.3458 48.158V14.684C10.3458 13.004 11.1718 12.164 12.8238 12.164H32.7318ZM48.8926 22.328H51.3286C51.9166 22.328 52.4066 22.58 52.7986 23.084C53.2186 23.588 53.4286 24.148 53.4286 24.764C53.4286 25.324 53.2186 25.87 52.7986 26.402C52.3786 26.906 51.8886 27.158 51.3286 27.158H48.8926V22.328ZM60.9886 29.174C61.6326 27.69 61.9546 26.612 61.9546 25.94V23.588C61.9546 21.096 60.9046 18.842 58.8046 16.826C56.7046 14.81 54.4086 13.802 51.9166 13.802H41.2066C40.6746 13.802 40.4086 14.082 40.4086 14.642V48.158C40.4086 48.718 40.6746 48.998 41.2066 48.998H48.0946C48.6546 48.998 48.9346 48.718 48.9346 48.158V35.684H51.6226C51.9026 35.684 52.2666 35.922 52.7146 36.398C53.1906 36.874 53.4286 37.252 53.4286 37.532V48.158C53.4286 48.718 53.7086 48.998 54.2686 48.998H61.1146C61.6746 48.998 61.9546 48.718 61.9546 48.158V36.944C61.9546 35.74 61.1986 33.92 59.6866 31.484C60.0506 31.092 60.4846 30.322 60.9886 29.174ZM64.2226 31.526V31.484C64.0266 32.016 63.7466 32.604 63.3826 33.248L64.4326 35.096C65.0206 36.132 65.3146 37.308 65.3146 38.624V49.838C65.3146 51.518 64.4746 52.358 62.7946 52.358H55.9486C54.5206 52.358 53.7086 51.784 53.5126 50.636C52.9526 50.524 52.5326 50.3 52.2526 49.964C52.2526 51.56 51.4266 52.358 49.7746 52.358H42.8866C41.5146 52.358 40.7166 51.784 40.4926 50.636C39.3166 50.412 38.7286 49.586 38.7286 48.158V14.642C38.7286 12.962 39.5546 12.122 41.2066 12.122H51.9166C54.7446 12.122 57.3906 13.312 59.8546 15.692H59.8126L60.3166 16.196C60.9886 16.868 61.3946 17.26 61.5346 17.372H61.4926C64.0406 19.752 65.3146 22.384 65.3146 25.268V27.62C65.3146 28.628 64.9506 29.93 64.2226 31.526ZM69.9995 48.998H89.9075C90.4675 48.998 90.7475 48.718 90.7475 48.158V41.354C90.7475 40.794 90.4675 40.514 89.9075 40.514H77.6855V35.684H87.4295C87.9895 35.684 88.2695 35.404 88.2695 34.844V27.998C88.2695 27.438 87.9895 27.158 87.4295 27.158H77.6855V22.286H89.9075C90.4675 22.286 90.7475 22.006 90.7475 21.446V14.684C90.7475 14.124 90.4675 13.844 89.9075 13.844H69.9995C69.4675 13.844 69.2015 14.124 69.2015 14.684V48.158C69.2015 48.718 69.4675 48.998 69.9995 48.998ZM71.6795 52.358C70.3075 52.358 69.5095 51.784 69.2855 50.636C68.1095 50.412 67.5215 49.586 67.5215 48.158V14.684C67.5215 13.004 68.3475 12.164 69.9995 12.164H89.9075C91.3075 12.164 92.1195 12.738 92.3435 13.886C93.5195 14.11 94.1075 14.936 94.1075 16.364V23.126C94.1075 24.806 93.2675 25.646 91.5875 25.646H88.6895C89.3055 25.898 89.7115 26.416 89.9075 27.2C91.0555 27.424 91.6295 28.25 91.6295 29.678V36.524C91.6295 37.756 91.1955 38.54 90.3275 38.876C91.4755 38.988 92.1475 39.548 92.3435 40.556C93.5195 40.78 94.1075 41.606 94.1075 43.034V49.838C94.1075 51.518 93.2675 52.358 91.5875 52.358H71.6795ZM99.8179 48.998H119.726C120.286 48.998 120.566 48.718 120.566 48.158V41.354C120.566 40.794 120.286 40.514 119.726 40.514H107.504V35.684H117.248C117.808 35.684 118.088 35.404 118.088 34.844V27.998C118.088 27.438 117.808 27.158 117.248 27.158H107.504V22.286H119.726C120.286 22.286 120.566 22.006 120.566 21.446V14.684C120.566 14.124 120.286 13.844 119.726 13.844H99.8179C99.2859 13.844 99.0199 14.124 99.0199 14.684V48.158C99.0199 48.718 99.2859 48.998 99.8179 48.998ZM101.498 52.358C100.126 52.358 99.3279 51.784 99.1039 50.636C97.9279 50.412 97.3399 49.586 97.3399 48.158V14.684C97.3399 13.004 98.1659 12.164 99.8179 12.164H119.726C121.126 12.164 121.938 12.738 122.162 13.886C123.338 14.11 123.926 14.936 123.926 16.364V23.126C123.926 24.806 123.086 25.646 121.406 25.646H118.508C119.124 25.898 119.53 26.416 119.726 27.2C120.874 27.424 121.448 28.25 121.448 29.678V36.524C121.448 37.756 121.014 38.54 120.146 38.876C121.294 38.988 121.966 39.548 122.162 40.556C123.338 40.78 123.926 41.606 123.926 43.034V49.838C123.926 51.518 123.086 52.358 121.406 52.358H101.498Z" fill="white"/>
</svg>
