<svg width="152" height="100" viewBox="0 0 152 100" fill="none" xmlns="http://www.w3.org/2000/svg">
<mask id="mask0_33_65" style="mask-type:luminance" maskUnits="userSpaceOnUse" x="0" y="0" width="152" height="61">
<path d="M151.402 0H0V60.3972H151.402V0Z" fill="white"/>
</mask>
<g mask="url(#mask0_33_65)">
<path d="M92.944 60.3505V57.5935C94.4627 57.5935 95.701 58.8318 95.701 60.3505C95.701 61.8692 94.4627 63.1075 92.944 63.1075V60.3505Z" fill="white"/>
<path d="M93.0609 6.51868V43.271C93.3646 43.271 92.7572 43.2243 93.0609 43.2243C102.5 43.2243 111.075 50.8878 111.075 60.3271C111.075 69.7663 102.5 77.4299 93.0609 77.4299C92.7572 77.4299 93.3646 77.4065 93.0609 77.3832V81.3318C93.0609 82.5467 93.0609 83.9953 93.0609 85.5841C92.8973 95.2804 92.8973 102.64 93.0609 111.472C93.0609 113.902 93.0609 115.421 93.0609 115.421C123.131 115.421 147.524 91.028 147.524 60.9579C147.524 30.8878 123.154 6.51868 93.0609 6.51868Z" fill="white"/>
<path d="M88.5281 125.304C88.2244 126.729 84.2758 124.579 83.4347 125.374C82.5935 126.145 87.0795 129.206 86.4253 130.537C85.7244 131.822 80.9347 127.874 80.0468 128.505C79.1356 129.136 84.0889 134.042 83.1543 135.187C82.1964 136.308 77.2898 130.584 76.3319 131.098C76.2851 131.098 76.2618 131.145 76.2384 131.192L75.7244 131.682C75.3506 132.71 80.7945 137.874 79.9534 138.972C79.0421 140.07 73.1309 133.878 72.2197 134.533C71.4954 135.047 74.9534 139.346 75.9347 141.682L75.6543 141.893C75.8646 142.547 75.9113 143.014 75.6543 143.178C74.5562 144.019 69.5795 136.145 68.5749 136.706C67.5468 137.243 72.3365 145.467 71.1683 146.215C70.0001 146.939 65.3973 138.388 64.3225 138.832C63.2711 139.299 67.6403 148.201 66.4253 148.855C65.8178 149.159 64.4627 147.009 63.1543 144.86C61.8459 142.734 60.5375 140.444 60.0702 140.864C59.6263 141.332 60.3506 143.832 60.8178 145.864C61.3085 147.944 61.5889 149.556 60.7711 149.276C59.1356 148.738 57.5935 144.439 56.5655 145.164C55.4907 145.818 56.6356 149.393 55.3506 149.743C54.0889 150.14 53.0842 146.495 51.8926 146.776C50.701 147.079 51.5655 150.748 50.2571 151.005C48.9487 151.215 48.2711 147.593 47.0795 147.804C45.8879 148.014 46.3786 151.659 45.0702 151.822C43.7384 151.963 43.4113 148.294 42.1963 148.341C40.9814 148.341 41.1449 152.173 39.8132 152.243C38.4814 152.336 38.5048 148.364 37.3132 148.294C36.1216 148.201 35.8646 152.266 34.5328 152.126C33.201 152.009 33.6683 147.944 32.4767 147.78C31.3085 147.593 30.5842 151.636 29.2524 151.402C27.9206 151.145 28.8786 147.079 27.7571 146.706C26.6356 146.332 25.3739 150.491 24.0655 150.117C22.7805 149.696 24.3225 145.537 23.2244 145.07C22.1496 144.603 20.3038 148.762 19.0889 148.154C17.8739 147.57 19.93 143.481 18.8786 142.921C17.8506 142.313 15.5608 146.308 14.3692 145.654C13.201 144.977 15.7945 140.958 14.8132 140.304C13.8085 139.673 10.958 143.598 9.85989 142.78C8.7384 141.986 11.9393 138.107 11.0515 137.29C10.187 136.495 6.72905 140.28 5.72438 139.346C4.71971 138.435 8.43466 134.766 7.66363 133.855C6.8926 132.967 2.87391 136.542 1.98606 135.514C1.07485 134.509 5.30382 131.075 4.62625 130.093C3.97204 129.112 -0.607395 132.477 -1.42515 131.402C-2.21954 130.304 2.57017 127.079 1.98606 126.051C1.42531 125 -3.71487 128.131 -4.46254 126.986C-5.18684 125.818 0.25709 122.85 -0.233564 121.776C-0.677489 120.678 -6.47188 123.505 -7.12609 122.313C-7.73357 121.075 -1.63543 118.435 -2.05599 117.36C-2.42983 116.262 -8.78497 118.645 -9.32235 117.36C-9.83637 116.075 -3.15413 113.925 -3.48123 112.827C-3.78497 111.729 -10.5607 113.505 -10.9345 112.15C-11.3083 110.794 -4.25226 109.369 -4.46254 108.248C-4.69618 107.126 -11.6822 108.131 -11.8691 106.729C-12.056 105.327 -4.90646 104.766 -4.97656 103.645C-5.02328 102.523 -12.1261 102.593 -12.0794 101.168C-12.0093 99.8832 -6.40179 100.093 -5.16347 99.3925V99.0888C-4.99992 98.9953 -4.92983 98.8785 -4.92983 98.7617C-4.92983 97.6402 -11.8691 97.3832 -11.7523 95.9813C-11.5887 94.5794 -4.813 95.257 -4.74291 94.1121C-4.60272 92.9906 -11.1915 91.9159 -10.9345 90.514C-10.584 89.1355 -4.1588 90.6308 -3.94852 89.5327C-3.66814 88.4346 -9.85973 86.542 -9.41581 85.2103C-8.90179 83.8785 -2.89712 86.1916 -2.52328 85.1168C-2.10272 84.0654 -7.80366 81.4252 -7.19618 80.1635C-6.54198 78.9252 -1.00459 81.9392 -0.467209 80.9346C0.116904 79.9766 -5.14011 76.6121 -4.39244 75.4205C-3.59805 74.2523 1.51877 78.014 2.21971 77.1261C2.96737 76.2617 -1.93917 72.1495 -1.07469 71.028C-0.140106 69.9533 4.62625 74.5327 5.46737 73.7617C6.35522 73.0374 1.70569 68.014 2.687 66.986C3.71503 66.0047 8.22438 71.542 9.18232 70.9346C10.187 70.3738 5.77111 64.229 6.84587 63.3177C7.96737 62.4299 12.2197 69.1822 13.2711 68.7383C14.3225 68.3411 10.187 60.8645 11.3552 60C12.5468 59.1589 16.5188 67.4299 17.6169 67.1729C18.715 66.9392 14.9534 57.8271 16.215 57.0794C17.5001 56.3318 21.0048 66.3785 22.1029 66.285C23.201 66.2149 20.0234 55.2103 21.3786 54.5561C21.6122 54.4626 22.0795 54.5093 22.4066 55.0701L22.8506 55.8645C23.715 58.6682 24.6029 66.3084 25.6309 66.5187C26.8926 66.7757 26.402 53.4813 27.687 53.0607C28.972 52.5701 29.416 67.0794 30.701 67.7804C31.3319 68.0607 31.5421 64.1822 31.7291 59.8832C31.9393 55.6542 32.1263 51.028 32.7571 50.5374C33.3879 50.0467 33.8319 54.6495 34.2758 59.8131C34.7197 64.9065 35.1403 70.5607 35.7945 71.1916C36.4253 71.8224 36.6356 66.0747 36.8225 59.7663C37.0328 53.5047 37.2197 46.542 37.8739 45.7944C38.5048 45.0467 38.9487 52.0093 39.3692 59.7196C39.7898 67.3598 40.2104 75.7243 40.8412 76.5187C41.472 77.3131 41.6823 68.8785 41.916 59.6962C42.1496 50.6075 42.3833 40.771 43.0375 39.9533C43.6917 39.1355 44.0889 49.042 44.4627 59.6729C44.8365 70.2336 45.187 81.5187 45.8178 82.3131C46.4253 83.1308 46.7057 71.799 47.0094 59.6495C47.3132 47.5701 47.6403 34.8598 48.3178 33.8318C48.9954 32.8271 49.2992 45.771 49.5562 59.6729C49.8365 73.4579 50.0702 88.3177 50.6543 89.486C51.2384 90.6542 51.659 75.7009 52.1029 59.6962C52.5468 43.785 53.0375 26.8224 53.7384 25.6775C54.4393 24.5327 54.5795 41.5888 54.6496 59.7196C54.7197 68.9719 54.7664 78.2243 54.8132 85.1402C54.9066 92.3131 55.0468 97.3598 55.3506 97.8271C55.9113 98.8084 56.5188 79.743 57.1964 59.7663C57.8506 39.9065 58.5982 19.2757 59.2992 18.4813C60.0001 17.6869 59.9066 38.4813 59.7431 59.8364C59.673 70.6308 59.6029 81.4252 59.5562 89.5093C59.5562 97.7336 59.6263 103.435 59.9066 103.715C60.187 104.019 60.5375 98.7149 60.958 90.4906C61.3085 82.1495 61.7992 71.028 62.2898 59.9065C62.7571 48.6682 63.2478 37.3364 63.6917 28.7383C64.159 20.1402 64.5795 14.2523 64.93 14.0187C65.2805 13.7617 65.3739 19.4159 65.3038 28.0374C65.2337 36.6589 65.0235 48.2944 64.8132 59.9766C64.6029 71.7523 64.3926 83.528 64.2291 92.3598C64.1122 101.262 64.1122 107.313 64.3926 107.5C64.673 107.687 65.0935 101.869 65.6076 92.9673C66.0749 83.9953 66.7057 72.0327 67.3365 60.0701C67.944 48.0374 68.5749 35.9813 69.159 26.8458C69.7197 17.7336 70.2337 11.542 70.5842 11.4486C70.9347 11.3318 70.958 17.3364 70.7945 26.4719C70.6309 35.6075 70.2571 47.8738 69.8833 60.1635C69.5094 72.5233 69.159 84.8832 68.8786 94.1589C68.7618 98.8318 68.6917 102.734 68.6683 105.491C68.6683 108.248 68.715 109.86 68.8319 109.93C69.1122 110.07 69.6029 103.949 70.2337 94.6495C70.8178 85.2804 71.6122 72.7804 72.4066 60.3037C73.1777 47.757 73.972 35.1635 74.673 25.6775C75.3739 16.1916 75.958 9.81306 76.3319 9.69624C76.7057 9.60278 76.6356 15.8878 76.3319 25.3972C76.0281 34.9065 75.5141 47.6402 74.9767 60.4205C74.4393 73.2243 73.9253 86.028 73.5048 95.6308C73.3178 100.444 73.201 104.486 73.1543 107.313C73.1076 110.14 73.1543 111.799 73.2711 111.822C73.4113 111.869 73.6216 110.304 73.902 107.523C74.1823 104.743 74.5328 100.748 74.93 95.9346C75.6309 86.285 76.5889 73.4112 77.5235 60.5607C78.458 47.6635 79.3926 34.743 80.1169 25.0701C80.4907 20.2103 80.8412 16.1682 81.1216 13.3411C81.402 10.514 81.6356 8.87848 81.7992 8.85512C81.9627 8.85512 82.0094 10.4439 81.9627 13.2944C81.916 16.1215 81.7992 20.1635 81.6122 25.0233C81.1917 34.7663 80.6309 47.7336 80.0702 60.7243C79.4861 73.7149 78.9253 86.729 78.6216 96.4953C78.3178 106.262 78.2711 112.827 78.6683 112.874C79.0655 112.921 79.6964 106.449 80.3973 96.6822C81.0982 86.9159 81.8692 73.8785 82.6169 60.7944C83.3646 47.7103 84.0889 34.6261 84.6496 24.8131C84.9534 19.8832 85.2337 15.7944 85.3973 12.9205C85.6076 10.0467 85.7711 8.38783 85.8879 8.36447C86.0048 8.36447 86.0515 9.95325 86.0281 12.8271C85.9814 15.7009 85.9347 19.7897 85.8646 24.6962C85.6543 34.5794 85.3973 47.7336 85.1403 60.8878C84.8833 74.0654 84.6496 87.2897 84.6029 97.2196C84.5562 107.15 84.673 113.832 85.0702 113.925C85.4674 114.019 85.9347 107.43 86.3786 97.5C86.8225 87.5701 87.2664 74.2757 87.687 60.9346C88.0842 47.5701 88.5048 34.229 88.8085 24.2056C88.9954 19.1589 89.159 14.9766 89.2524 12.0327C89.3926 9.08876 89.5094 7.35979 89.6263 7.33643C89.7431 7.31306 89.8132 8.94858 89.8833 11.8458C89.93 14.7663 89.9767 18.9486 90.0235 23.9719C90.0702 34.0654 90.1403 47.5467 90.2337 61.0047C90.3038 74.5093 90.4207 88.0374 90.6309 98.2476C90.8412 108.435 91.1216 115.304 91.5421 115.421" stroke="white" stroke-width="1.09813" stroke-miterlimit="10"/>
<path d="M92.944 7.38318C101.519 7.38318 105.467 26.4486 112.453 30.0467C119.907 33.8785 137.827 26.5654 142.196 33.3178C146.565 40.0701 132.57 52.9206 132.57 61.4019C132.57 69.8832 146.589 82.7103 142.196 89.486C137.804 96.2617 119.883 88.9252 112.453 92.757C105.444 96.3551 101.519 115.421 92.944 115.421" stroke="#222221" stroke-width="0.443925" stroke-miterlimit="10"/>
<path d="M92.944 10.6074C101.005 10.6074 104.72 28.528 111.285 31.9392C118.294 35.5607 135.14 28.6682 139.276 35.0233C143.411 41.3785 130.234 53.4579 130.234 61.4485C130.234 69.4392 143.411 81.4953 139.276 87.8738C135.14 94.2523 118.294 87.3364 111.285 90.9579C104.696 94.3457 101.005 112.29 92.944 112.29" stroke="#222221" stroke-width="0.443925" stroke-miterlimit="10"/>
<path d="M92.944 16.7523C100 16.7523 103.224 32.4065 108.972 35.3738C115.094 38.528 129.813 32.5234 133.411 38.0607C137.009 43.5981 125.514 54.1589 125.514 61.1215C125.514 68.0841 137.033 78.6215 133.411 84.1822C129.79 89.743 115.094 83.7149 108.972 86.8691C103.224 89.8364 100 105.491 92.944 105.491" stroke="#222221" stroke-width="0.443925" stroke-miterlimit="10"/>
<path d="M92.944 19.5327C99.5561 19.5327 102.57 34.2056 107.967 36.986C113.692 39.9533 127.5 34.2991 130.865 39.5094C134.229 44.7196 123.458 54.6028 123.458 61.1449C123.458 67.6869 134.252 77.5467 130.865 82.7804C127.477 88.014 113.692 82.3364 107.967 85.3037C102.57 88.0841 99.5561 102.757 92.944 102.757" stroke="#222221" stroke-width="0.443925" stroke-miterlimit="10"/>
<path d="M92.944 21.8458C99.1823 21.8458 102.033 35.701 107.126 38.3412C112.547 41.1215 125.561 35.8178 128.762 40.7243C131.963 45.6309 121.776 54.9767 121.776 61.1449C121.776 67.3131 131.963 76.6355 128.762 81.5655C125.561 86.4954 112.547 81.1449 107.126 83.9486C102.033 86.5655 99.1823 100.444 92.944 100.444" stroke="#222221" stroke-width="0.443925" stroke-miterlimit="10"/>
<path d="M92.944 30.3972C97.8739 30.3972 100.14 41.3552 104.159 43.4112C108.435 45.6075 118.738 41.4253 121.238 45.2804C123.738 49.1355 115.701 56.5421 115.701 61.4019C115.701 66.2617 123.762 73.6449 121.238 77.5234C118.715 81.4019 108.435 77.1963 104.159 79.3925C100.14 81.472 97.8739 92.4066 92.944 92.4066" stroke="#222221" stroke-width="0.443925" stroke-miterlimit="10"/>
</g>
<path d="M10.1869 100H9.53271C8.24767 99.8832 7.07944 99.3926 6.0514 98.5047C5.02337 97.6169 4.29907 96.5655 3.90187 95.3505C3.85514 95.2337 3.83178 95.1169 3.83178 95.0001C3.83178 94.6262 4.04206 94.4159 4.48598 94.4159C4.74299 94.4159 5.02337 94.4627 5.30374 94.5795C6.65888 95.0702 8.03738 95.3038 9.46262 95.3038C10.0467 95.3038 10.9813 95.2103 12.2897 95.0234C13.5981 94.8365 15.0701 94.1589 16.729 92.9674C17.1495 92.7103 17.3365 92.3832 17.3365 92.0328C17.3365 91.7057 17.1963 91.4253 16.8925 91.1916C16.5421 90.9346 16.1449 90.7477 15.6776 90.6543C14.8365 90.444 14.0187 90.2571 13.1542 90.0702C11.7056 89.7898 10.3037 89.416 8.9486 88.972C7.59346 88.5281 6.37851 87.8272 5.30374 86.8926C4.2757 85.9346 3.50467 84.7898 3.01402 83.4346C2.59346 82.2664 2.38318 81.0515 2.38318 79.8131C2.38318 79.6496 2.38318 79.486 2.38318 79.2991C2.54673 76.6356 3.48131 74.0421 5.21028 71.5188C6.96262 68.9019 9.20561 66.8225 11.9159 65.2571C12.6636 64.8365 13.4579 64.486 14.2757 64.2524C14.7664 64.1122 15.2336 64.0421 15.7243 64.0421C16.0748 64.0421 16.4252 64.0655 16.7757 64.1356C18.271 64.5561 19.2991 65.4907 19.8598 66.9393C19.9766 67.2664 20.0234 67.5935 20.0234 67.9206C20.0234 68.201 19.9533 68.5748 19.8365 69.0188C19.7196 69.4627 19.3692 69.8131 18.8084 70.0468C18.6916 70.0935 18.5981 70.1169 18.5047 70.1169C18.4346 70.1169 18.3645 70.1169 18.2944 70.0935C18.1308 70.0001 18.014 69.8832 18.014 69.6963C18.014 69.6029 17.9907 69.5094 17.9907 69.4159C17.9907 69.3225 17.9907 69.2057 17.9907 69.0888C17.9907 68.972 17.9907 68.8318 17.9907 68.6916C17.9907 68.6449 17.9907 68.5748 17.9907 68.458C17.9907 68.3412 17.9439 68.2244 17.8271 68.0842C17.6869 67.9206 17.5 67.8272 17.2897 67.8272C17.0094 67.8272 16.6822 67.9206 16.3551 68.1075C13.7383 69.5328 11.4953 71.4019 9.62617 73.715C7.75701 76.0281 6.49533 78.6216 5.84112 81.5187C5.79439 81.7758 5.74767 82.0328 5.74767 82.3131C5.74767 82.8973 6.0514 83.3645 6.68225 83.6449C7.42991 84.0655 8.2243 84.3926 9.06542 84.6262C9.90655 84.8599 10.7243 85.0935 11.5888 85.2804C12.6402 85.5141 13.6682 85.7945 14.6729 86.1216C15.6776 86.4487 16.6122 86.9159 17.5 87.5001C19.3458 88.6917 20.5841 90.1402 21.1916 91.8459C21.3551 92.3365 21.4486 92.8272 21.4486 93.3178C21.4486 95.0702 20.3972 96.5421 18.2944 97.7337C15.771 99.2057 13.0608 99.93 10.1402 99.93L10.1869 100Z" fill="white"/>
<path d="M27.57 94.0889C26.5887 94.0889 25.7943 93.9019 25.1401 93.5281C23.4813 92.5234 22.6401 90.5842 22.6401 87.687C22.6401 87.0328 22.6869 86.4253 22.757 85.8879C22.8971 85.1403 23.3177 84.6262 24.0186 84.3926C23.9719 84.2524 23.9719 84.0889 23.9719 83.9253C23.9719 83.1309 24.2289 82.4066 24.7429 81.729C25.514 80.6776 26.7757 80.1403 28.5046 80.1403C29.2523 80.1403 29.9065 80.3272 30.4672 80.7244C31.028 81.1216 31.4953 81.6356 31.8457 82.3132C32.5233 83.5515 32.8504 85.0234 32.8504 86.729C32.8504 86.8459 32.8504 87.173 32.8271 87.687C32.8037 88.201 32.6869 88.8552 32.4532 89.6963C32.2196 90.5375 31.8925 91.2618 31.4486 91.9393C31.0046 92.6169 30.4672 93.1309 29.8364 93.5281C29.2056 93.9253 28.4345 94.1122 27.5934 94.1122L27.57 94.0889ZM27.4532 90.8879C27.757 90.8879 28.0373 90.6776 28.3177 90.2804C28.5981 89.8833 28.8084 89.3459 28.9953 88.715C29.3224 87.5935 29.4859 86.4954 29.4859 85.3973C29.4859 85.1403 29.4859 84.7898 29.4392 84.3459C29.3925 83.9019 29.2757 83.4814 29.0654 83.0608C28.8551 82.6403 28.5514 82.4533 28.1308 82.4533C27.4299 82.4533 26.8457 82.687 26.3785 83.1543C26.028 83.5281 25.8411 83.9253 25.8411 84.3692C25.8411 84.5094 25.8411 84.6496 25.8878 84.7898C26.285 85.1636 26.4953 85.6076 26.4953 86.1683V86.3085C26.4485 86.729 26.4252 87.1496 26.4252 87.5935C26.4252 88.2244 26.4719 88.7851 26.542 89.2991C26.7056 90.3505 27.0327 90.8879 27.4766 90.8879H27.4532Z" fill="white"/>
<path d="M43.1075 95.6309C43.1075 95.6309 42.8973 95.6309 42.7804 95.5841C42.43 95.4673 42.1496 95.2337 41.9159 94.9299C41.6823 94.6262 41.5421 94.2991 41.4487 93.9486C41.3552 93.5281 41.3085 93.1075 41.3085 92.6869C41.3085 92.2664 41.2384 91.8458 41.1683 91.4019C41.0515 91.8692 40.8645 92.3365 40.6776 92.7804C40.4907 93.2243 40.1636 93.5748 39.7664 93.8552C39.4159 94.0654 39.0421 94.1589 38.6215 94.1589C38.5047 94.1589 38.2944 94.1589 37.9673 94.0888C37.6402 94.0187 37.2664 93.8785 36.7991 93.5514C36.0281 92.9673 35.444 92.0795 35.0234 90.9346C34.6029 89.7197 34.3926 88.458 34.3926 87.1496C34.3926 86.0047 34.5094 84.8832 34.7197 83.7617C34.9767 82.4066 35.3972 81.3785 36.0047 80.6309C36.3318 80.2103 36.7524 79.9767 37.2664 79.9299C37.4066 79.9299 37.5468 79.9533 37.7103 80.0234C38.4346 80.3972 38.7851 81.7056 38.7851 83.9019C38.7851 84.7197 38.7617 85.5608 38.6916 86.3785C38.6449 87.0094 38.6215 87.6636 38.6215 88.3178C38.6215 89.5327 38.6683 90.2804 38.7617 90.5608C38.8318 90.7711 38.972 90.8879 39.1823 90.8879C39.5094 90.8879 39.7664 90.6542 39.8832 90.2103C40.1402 89.486 40.3272 88.7617 40.4673 88.014C40.6075 87.2664 40.7244 86.5187 40.8412 85.7477C40.9346 85 41.0515 84.2757 41.1916 83.5514C41.4954 81.9626 41.8926 80.8879 42.3599 80.3505C42.6169 80.0935 42.9206 79.9533 43.2711 79.9533C43.8552 79.9533 44.2991 80.4206 44.6262 81.3552C44.9767 82.4066 45.187 83.5047 45.2571 84.6028C45.3038 85.3038 45.3272 85.9813 45.3272 86.6823C45.3272 88.2711 45.2337 89.8131 45.0468 91.2851C44.9066 92.4066 44.6262 93.4813 44.229 94.5094C44.1122 94.8365 43.9253 95.1169 43.6916 95.3739C43.5281 95.5374 43.3412 95.6309 43.1075 95.6309Z" fill="white"/>
<path d="M48.6449 94.6496C47.2898 94.6029 46.5421 93.6917 46.4019 91.9393C46.3084 90.7477 46.2617 89.5562 46.2617 88.3646C46.2617 86.0281 46.4486 83.6917 46.8225 81.402C46.8692 81.0749 46.9393 80.7477 47.0094 80.444C47.0795 80.1403 47.2197 79.8365 47.4066 79.5562C47.5935 79.2758 47.8038 79.0655 48.1075 78.9253C48.3178 78.8085 48.5514 78.7384 48.7851 78.7384C48.8785 78.7384 48.9486 78.7384 49.0421 78.7618C49.5094 78.8786 49.8598 79.1356 50.0935 79.5562C50.3271 79.9767 50.4673 80.444 50.5141 80.9113V81.2618C50.5141 81.5188 50.5141 81.7524 50.4907 82.0094C50.4907 82.2197 50.4673 82.43 50.4673 82.6403C50.4673 82.9674 50.4907 83.3178 50.5608 83.6683C50.7243 83.201 50.9113 82.7571 51.1215 82.3365C51.3318 81.916 51.5888 81.4954 51.9159 81.1216C52.243 80.7478 52.6169 80.4674 53.0842 80.2571C53.4113 80.1169 53.7617 80.0468 54.1122 80.0468C54.6963 80.0468 55.2103 80.2571 55.7243 80.6543C56.0748 80.9347 56.3785 81.2851 56.5888 81.7057C56.986 82.5235 57.1963 83.3879 57.243 84.2992C57.243 84.673 57.2664 85.0702 57.2664 85.444C57.2664 86.0748 57.2664 86.7057 57.1963 87.3365C57.1262 87.9674 57.1262 88.5982 57.1262 89.2291C57.1262 89.7664 57.1262 90.2805 57.1729 90.8178C57.1729 91.0748 57.2664 91.3319 57.3832 91.5655C57.5 91.7991 57.687 91.9393 57.944 91.9861C58.2944 91.9861 58.5748 91.7057 58.7851 91.1683C59.4627 89.3926 59.9299 87.5468 60.2337 85.6309C60.257 85.3973 60.3271 85.187 60.444 85.0234C60.5374 84.8599 60.6776 84.7664 60.8412 84.7664C61.1683 84.7664 61.3318 85.0468 61.3318 85.6076V85.7244C61.0982 88.4113 60.6542 90.5141 60 92.0328C59.6496 92.8272 59.1356 93.4347 58.4346 93.8319C58.0608 94.0188 57.687 94.1122 57.2898 94.1122C56.9627 94.1122 56.5421 94.0188 56.0047 93.8085C55.4673 93.5982 54.9767 93.201 54.5327 92.5702C53.8785 91.6122 53.5514 90.3505 53.5514 88.8085C53.5514 88.3879 53.5748 87.8038 53.6449 87.0795C53.6916 86.5889 53.715 86.0749 53.715 85.5842C53.715 85.0468 53.6916 84.5094 53.6215 83.972C53.6215 83.6683 53.458 83.5281 53.201 83.5281C53.1075 83.5281 52.9673 83.5515 52.8271 83.6216C52.243 83.972 51.7757 84.673 51.472 85.701C50.8412 87.7337 50.5374 89.8365 50.5374 91.9861V92.2664C50.5374 92.7104 50.4907 93.1309 50.3505 93.5048C50 94.2057 49.4393 94.5795 48.6683 94.6263L48.6449 94.6496Z" fill="white"/>
<path d="M72.8738 97.7103C72.4299 97.7103 72.0327 97.5468 71.6822 97.1963C69.6962 95.2337 68.528 92.8505 68.1775 90.0935C68.1775 90.2103 68.1542 90.3972 68.0841 90.6542C68.014 90.9112 67.8972 91.2383 67.7103 91.6355C67.5233 92.0327 67.2897 92.4066 66.986 92.757C66.6822 93.1075 66.3084 93.4346 65.8645 93.6916C65.4205 93.9486 64.8832 94.0654 64.299 94.0654C63.5514 94.0654 62.8271 93.7617 62.1495 93.1309C60.7009 91.729 59.9532 89.7664 59.9532 87.2197C59.9532 84.5561 60.6542 82.5234 62.0327 81.1449C62.757 80.4206 63.5514 80.0467 64.3691 80.0467C66.2617 80.0467 67.3131 80.6776 67.5233 81.9393C67.8037 77.7337 68.7383 73.6916 70.3037 69.7897C70.3738 69.6262 70.4906 69.3925 70.6775 69.0888C70.8645 68.7851 71.0981 68.4813 71.3551 68.2243C71.6121 67.9673 71.9159 67.8038 72.2196 67.7804C72.757 67.7804 73.1542 67.9673 73.3878 68.3411C73.6916 68.8318 73.8551 69.4159 73.8551 70.1168C73.8551 70.2337 73.8551 70.3505 73.8318 70.4206C73.5748 71.9393 73.2944 73.458 72.9673 74.9533C72.5701 76.7991 72.2196 78.6682 71.9392 80.5608C71.729 82.1729 71.6121 83.7851 71.6121 85.4206C71.6121 87.6869 71.8224 89.8598 72.2196 91.9393C72.4532 93.1776 72.8271 94.3458 73.3177 95.4907C73.6448 96.1449 73.8084 96.6122 73.8084 96.9159C73.8084 97.1963 73.6682 97.4066 73.4112 97.5935C73.2243 97.6869 73.0374 97.7337 72.8271 97.7337L72.8738 97.7103ZM65.0467 91.2383C65.3972 91.2383 65.7243 91.0047 66.028 90.5608C66.3318 90.1168 66.5888 89.5094 66.8224 88.8084C67.0561 88.1075 67.2196 87.3365 67.3598 86.5187C67.5 85.701 67.5467 84.9533 67.5467 84.2524C67.5467 84.1589 67.4766 83.9953 67.3598 83.7617C67.243 83.5281 67.0794 83.3411 66.8925 83.1542C66.7056 82.9673 66.4953 82.8739 66.285 82.8739C65.3271 82.8739 64.6962 83.5982 64.3458 85.0234C64.1822 85.771 64.0888 86.5421 64.0888 87.3365C64.0888 87.9206 64.1355 88.5281 64.2056 89.1122C64.2757 89.6963 64.3925 90.1869 64.5561 90.6075C64.7196 91.0281 64.8832 91.215 65.0701 91.215L65.0467 91.2383Z" fill="white"/>
<path d="M75.9112 100C75.3037 100 74.8131 99.7664 74.4159 99.3459C74.0187 98.9253 73.8318 98.4113 73.8318 97.8038L74.1355 87.6169C74.3224 80.6543 74.6495 73.6916 75.1168 66.7524C75.1402 66.4019 75.1869 66.0748 75.257 65.7244C75.3271 65.3739 75.4439 65.0702 75.6308 64.8131C76.028 64.2991 76.5421 64.0421 77.1495 64.0421H77.3365C78.0374 64.1823 78.528 64.5795 78.8084 65.2337C78.9252 65.6075 78.972 65.958 78.972 66.3318C78.972 67.0328 78.8785 68.8085 78.6916 71.6823C78.5514 73.8085 78.458 75.4673 78.4112 76.729C78.9953 74.2057 79.6963 71.986 80.5374 70.1169C81.3785 68.2477 82.2664 66.7758 83.2243 65.7477C84.1822 64.7197 85.1402 64.1823 86.1215 64.1823C87.6636 64.229 88.8318 64.673 89.6262 65.5374C90.4206 66.4019 90.8645 67.5234 91.0047 68.9487C91.0514 69.3459 91.0748 69.7431 91.0748 70.1636C91.0748 71.2384 90.9112 72.5001 90.5841 73.9253C90.257 75.3505 89.7196 76.9393 88.972 78.6216C88.2243 80.3038 87.3131 81.8459 86.2851 83.2477C85.257 84.6496 84.1589 85.7711 82.9907 86.6356C81.8224 87.5001 80.6542 87.9206 79.486 87.944L79.6028 88.0374C79.6495 88.458 79.9066 88.9487 80.3738 89.5328C80.8411 90.1169 81.6589 90.7477 82.8271 91.4954C83.9953 92.243 85.6542 93.0608 87.8038 93.972C88.2944 94.1823 88.6449 94.5094 88.8785 94.93C88.9953 95.1636 89.0654 95.3973 89.0654 95.6309C89.0654 95.8178 88.9953 96.0748 88.8785 96.4019C88.715 96.7758 88.458 97.0328 88.1075 97.1963C87.8738 97.3131 87.6402 97.3599 87.3598 97.3599C87.2196 97.3599 87.0795 97.3599 86.9159 97.3131C85.8879 97.0795 84.7897 96.7057 83.6215 96.1683C82.4533 95.6309 81.4019 95.0001 80.4907 94.229V94.1823L80.3505 94.1122C79.7897 93.6216 79.3458 93.1309 79.0187 92.5935C79.0187 92.5935 78.6916 92.2197 78.2477 91.472C78.1309 93.6683 78.0608 95.8178 78.0374 97.8973C78.0374 98.5047 77.8037 98.9954 77.4066 99.3926C77.0094 99.7898 76.5187 100 75.9112 100ZM78.4112 85.1636C79.2056 85.1636 80.0467 84.6963 80.8879 83.8085C81.729 82.9206 82.5467 81.7758 83.3178 80.3505C84.0888 78.9253 84.7897 77.43 85.3738 75.8645C85.958 74.2991 86.4252 72.7804 86.729 71.3552C86.986 70.2337 87.1028 69.2758 87.1028 68.458C87.1028 68.2477 87.0795 67.8739 87.0094 67.3365C86.9393 66.7991 86.6355 66.5188 86.0748 66.472C85.3972 66.5188 84.7196 67.0795 84.0187 68.1776C83.3178 69.2758 82.6402 70.6543 81.9626 72.3365C81.2851 74.0187 80.7009 75.7477 80.1636 77.5001C79.6262 79.2524 79.2056 80.8645 78.9019 82.2664C78.5981 83.6683 78.4112 84.6262 78.4112 85.1636Z" fill="white"/>
<path d="M94.3926 94.4861C92.9206 94.4394 91.7524 94.0655 90.9112 93.3412C89.486 92.1263 88.7617 90.3739 88.7617 88.0375C88.7617 87.6637 88.8084 87.0795 88.9019 86.2618C88.9954 85.444 89.2991 84.4627 89.8365 83.3412C90.3739 82.2197 91.0748 81.2852 91.9627 80.5842C92.8505 79.8833 93.8318 79.5094 94.9767 79.4861C96.0514 79.4861 96.9159 79.7665 97.5468 80.3272C98.2243 80.9814 98.5514 81.8459 98.5514 82.944C98.5514 83.4113 98.458 83.9487 98.2944 84.5562C98.1309 85.1637 97.8505 85.7244 97.4299 86.2384C96.7524 87.1263 95.8879 87.7571 94.8599 88.1777C94.4393 88.3412 93.9954 88.4347 93.5514 88.458C93.3645 88.458 93.201 88.458 93.0141 88.4347C92.7103 88.3879 92.5701 88.3412 92.5701 88.2478V88.5048C92.5701 89.3926 92.7103 90.1637 93.0141 90.7945C93.3178 91.4253 93.8084 91.7758 94.5327 91.7992C96.0047 91.7758 97.3598 90.8646 98.6215 89.0889C99.5327 87.7805 100.28 86.3786 100.841 84.9066C100.911 84.7431 101.028 84.673 101.192 84.673C101.262 84.673 101.308 84.673 101.379 84.7197C101.519 84.8132 101.589 84.9066 101.589 85.0702C101.589 85.1169 101.589 85.1637 101.565 85.2104C100.818 87.6637 100 89.6496 99.1355 91.145C97.8505 93.3179 96.2851 94.4394 94.4159 94.4627L94.3926 94.4861ZM93.3412 86.5188C93.7384 86.5188 94.1356 86.3786 94.5561 86.1216C94.9767 85.8646 95.3038 85.4674 95.6075 84.9534C95.9113 84.4394 96.0982 83.9721 96.215 83.5749C96.3785 83.0609 96.472 82.6403 96.472 82.2898C96.472 82.1263 96.4486 81.9627 96.3785 81.7758C96.3084 81.5889 96.1449 81.4954 95.8645 81.4721C95.3972 81.4721 94.9533 81.7291 94.5561 82.1964C94.1589 82.6637 93.7851 83.2711 93.4813 84.0422C93.1776 84.8132 92.944 85.6076 92.7804 86.4487C92.9907 86.4954 93.1776 86.5422 93.3645 86.5422L93.3412 86.5188Z" fill="white"/>
<path d="M105.818 94.486C104.369 94.4393 103.201 94.0655 102.337 93.3412C100.911 92.1262 100.187 90.3739 100.187 88.0608C100.187 87.687 100.234 87.1029 100.327 86.2851C100.421 85.4673 100.724 84.486 101.262 83.3645C101.799 82.243 102.5 81.3085 103.388 80.6075C104.276 79.9066 105.257 79.5328 106.402 79.5094C108.435 79.5561 109.58 80.3973 109.837 82.0328C109.907 82.4066 109.93 82.8038 109.93 83.1776C109.93 83.4814 109.93 83.7851 109.86 84.0888C109.766 84.5561 109.533 84.8599 109.159 85.0001C109.042 85.0468 108.902 85.0935 108.785 85.0935C108.528 85.0935 108.271 85.0001 108.014 84.7898C107.757 84.5328 107.617 84.229 107.617 83.9019C107.617 83.7851 107.617 83.6683 107.664 83.5515C107.827 83.0141 107.897 82.5935 107.897 82.2664C107.897 82.1029 107.874 81.9393 107.804 81.7524C107.734 81.5655 107.57 81.472 107.29 81.4487C106.706 81.472 106.168 81.8459 105.701 82.5234C105.234 83.201 104.837 84.0655 104.509 85.0701C104.159 86.2617 103.995 87.3832 103.995 88.458C103.995 89.3459 104.136 90.1169 104.439 90.7711C104.743 91.4253 105.234 91.7758 105.981 91.7991C107.453 91.7758 108.809 90.8645 110.07 89.0888C110.981 87.7804 111.729 86.3786 112.29 84.9066C112.36 84.743 112.477 84.673 112.64 84.673C112.71 84.673 112.757 84.6729 112.827 84.7197C112.967 84.8131 113.037 84.93 113.037 85.0701C113.037 85.1169 113.037 85.1402 113.014 85.187C112.266 87.6169 111.449 89.6029 110.561 91.1216C109.299 93.2944 107.71 94.4159 105.841 94.4393L105.818 94.486Z" fill="white"/>
<path d="M116.285 94.0889C115.304 94.0889 114.509 93.9019 113.855 93.5281C112.196 92.5234 111.355 90.5842 111.355 87.687C111.355 87.0328 111.402 86.4253 111.472 85.8879C111.612 85.1403 112.033 84.6262 112.734 84.3926C112.687 84.2524 112.687 84.0889 112.687 83.9253C112.687 83.1309 112.944 82.4066 113.458 81.729C114.229 80.6776 115.491 80.1403 117.22 80.1403C117.967 80.1403 118.622 80.3272 119.182 80.7244C119.743 81.1216 120.21 81.6356 120.561 82.3132C121.238 83.5515 121.566 85.0234 121.566 86.729C121.566 86.8459 121.566 87.173 121.542 87.687C121.519 88.201 121.402 88.8552 121.168 89.6963C120.935 90.5375 120.608 91.2618 120.164 91.9393C119.72 92.6169 119.182 93.1309 118.551 93.5281C117.921 93.9253 117.15 94.1122 116.308 94.1122L116.285 94.0889ZM116.168 90.8879C116.472 90.8879 116.752 90.6776 117.033 90.2804C117.313 89.8833 117.523 89.3459 117.71 88.715C118.037 87.5935 118.201 86.4954 118.201 85.3973C118.201 85.1403 118.201 84.7898 118.154 84.3459C118.108 83.9019 117.991 83.4814 117.78 83.0608C117.57 82.6403 117.266 82.4533 116.846 82.4533C116.145 82.4533 115.561 82.687 115.094 83.1543C114.743 83.5281 114.556 83.9253 114.556 84.3692C114.556 84.5094 114.556 84.6496 114.603 84.7898C115 85.1636 115.21 85.6076 115.21 86.1683V86.3085C115.164 86.729 115.14 87.1496 115.14 87.5935C115.14 88.2244 115.187 88.7851 115.257 89.2991C115.421 90.3505 115.748 90.8879 116.192 90.8879H116.168Z" fill="white"/>
<path d="M126.238 94.486C125.514 94.4393 124.907 94.0654 124.463 93.3178C124.019 92.5701 123.668 91.6122 123.435 90.444C123.248 89.3926 123.154 88.2711 123.154 87.1028C123.154 86.986 123.154 86.5655 123.154 85.8412C123.154 85.1169 123.294 84.1823 123.528 83.0374C123.762 81.8926 124.112 80.9346 124.556 80.2103C125 79.486 125.537 79.1122 126.168 79.1122C126.379 79.1122 126.612 79.229 126.846 79.4626C127.08 79.6963 127.22 80.1169 127.243 80.6776C127.313 82.5 127.36 83.4813 127.36 83.6215C127.36 83.8084 127.36 83.9486 127.36 84.0421C127.757 82.8038 128.341 81.7524 129.089 80.8645C129.837 79.9767 130.561 79.5327 131.215 79.486C131.963 79.5327 132.547 79.6963 132.944 80C133.341 80.3038 133.622 80.6309 133.738 80.9813C133.855 81.2383 133.902 81.4253 133.902 81.5655C133.902 81.7056 133.809 81.8225 133.622 81.9159C133.528 81.9627 133.435 81.986 133.318 81.986C133.248 81.986 133.154 81.986 133.014 81.9393C132.874 81.8926 132.687 81.7757 132.43 81.5655C132.337 81.4954 132.266 81.4486 132.15 81.4486C132.056 81.4486 131.986 81.4486 131.916 81.5187C130.935 82.2898 130.14 83.2711 129.58 84.5094C129.019 85.7477 128.575 87.0561 128.318 88.5047C128.061 89.9533 127.897 91.3552 127.874 92.757C127.827 93.2711 127.64 93.6916 127.266 94.0187C126.893 94.3458 126.566 94.5094 126.215 94.5094L126.238 94.486Z" fill="white"/>
<path d="M147.991 97.7103C147.547 97.7103 147.15 97.5468 146.799 97.1963C144.813 95.2337 143.645 92.8505 143.294 90.0935C143.294 90.2103 143.271 90.3972 143.201 90.6542C143.131 90.9112 143.014 91.2383 142.827 91.6355C142.64 92.0327 142.407 92.4066 142.103 92.757C141.799 93.1075 141.425 93.4346 140.981 93.6916C140.537 93.9486 140 94.0654 139.416 94.0654C138.668 94.0654 137.944 93.7617 137.266 93.1309C135.818 91.729 135.07 89.7664 135.07 87.2197C135.07 84.5561 135.771 82.5234 137.149 81.1449C137.874 80.4206 138.668 80.0467 139.486 80.0467C141.378 80.0467 142.43 80.6776 142.64 81.9393C142.921 77.7337 143.855 73.6916 145.421 69.7897C145.491 69.6262 145.607 69.3925 145.794 69.0888C145.981 68.7851 146.215 68.4813 146.472 68.2243C146.729 67.9673 147.033 67.8038 147.336 67.7804C147.874 67.7804 148.271 67.9673 148.505 68.3411C148.808 68.8318 148.972 69.4159 148.972 70.1168C148.972 70.2337 148.972 70.3505 148.949 70.4206C148.692 71.9393 148.411 73.458 148.084 74.9533C147.687 76.7991 147.336 78.6682 147.056 80.5608C146.846 82.1729 146.729 83.7851 146.729 85.4206C146.729 87.6869 146.939 89.8598 147.336 91.9393C147.57 93.1776 147.944 94.3458 148.435 95.4907C148.762 96.1449 148.925 96.6122 148.925 96.9159C148.925 97.1963 148.785 97.4066 148.528 97.5935C148.341 97.6869 148.154 97.7337 147.944 97.7337L147.991 97.7103ZM140.164 91.2383C140.514 91.2383 140.841 91.0047 141.145 90.5608C141.449 90.1168 141.706 89.5094 141.939 88.8084C142.173 88.1075 142.336 87.3365 142.477 86.5187C142.617 85.701 142.664 84.9533 142.664 84.2524C142.664 84.1589 142.593 83.9953 142.477 83.7617C142.36 83.5281 142.196 83.3411 142.009 83.1542C141.822 82.9673 141.612 82.8739 141.402 82.8739C140.444 82.8739 139.813 83.5982 139.463 85.0234C139.299 85.771 139.206 86.5421 139.206 87.3365C139.206 87.9206 139.252 88.5281 139.322 89.1122C139.392 89.6963 139.509 90.1869 139.673 90.6075C139.836 91.0281 140 91.215 140.187 91.215L140.164 91.2383Z" fill="white"/>
</svg>
