<svg width="25" height="26" viewBox="0 0 25 26" fill="none" xmlns="http://www.w3.org/2000/svg">
<path fill-rule="evenodd" clip-rule="evenodd" d="M18.6891 10.0023C18.6891 14.4031 15.0832 18.0023 10.5958 18.0023C6.10839 18.0023 2.50244 14.4031 2.50244 10.0023C2.50244 5.60152 6.10839 2.00232 10.5958 2.00232C15.0832 2.00232 18.6891 5.60152 18.6891 10.0023ZM16.0612 18.4108C14.4861 19.4179 12.6098 20.0023 10.5958 20.0023C5.02138 20.0023 0.502441 15.5252 0.502441 10.0023C0.502441 4.47947 5.02138 0.00231934 10.5958 0.00231934C16.1702 0.00231934 20.6891 4.47947 20.6891 10.0023C20.6891 12.8091 19.522 15.3458 17.6423 17.162L24.2035 23.6625C24.5958 24.0512 24.5958 24.6815 24.2035 25.0702C23.8112 25.4589 23.1751 25.4589 22.7827 25.0702L16.0612 18.4108Z" fill="white"/>
</svg>
